# AST/ASF file generated using VICON BodyLanguage
# -----------------------------------------------
:version 1.10
:name VICON
:units
  mass 1.0
  length 0.45
  angle deg
:documentation
   .ast/.asf automatically generated from VICON data using
   VICON BodyBuilder and BodyLanguage model FoxedUp or BRILLIANT.MOD
:root
   order TX TY TZ RX RY RZ
   axis XYZ
   position 0 0 0  
   orientation 0 -0 0 
:bonedata
  begin
     id 1 
     name lhipjoint
     direction 0.500677 -0.737119 0.453848 
     length 2.34727 
     axis 0 -0 0  XYZ
  end
  begin
     id 2 
     name lfemur
     direction 0.34202 -0.939693 0  
     length 7.53653  
     axis 0 -0 20  XYZ
    dof rx ry rz
    limits (-160.0 20.0)
           (-70.0 70.0)
           (-60.0 70.0)
  end
  begin
     id 3 
     name ltibia
     direction 0.34202 -0.939693 0   
     length 6.85572   
     axis 0 -0 20   XYZ
    dof rx
    limits (-10.0 170.0)
  end
  begin
     id 4 
     name lfoot
     direction 0.155313 -0.426718 0.890949   
     length 2.18324   
     axis -90 -1.13533e-015 20   XYZ
    dof rx rz
    limits (-45.0 90.0)
           (-70.0 20.0)
  end
  begin
     id 5 
     name ltoes
     direction 1.53474e-011 -4.21647e-011 1   
     length 1.06748   
     axis -90 -1.13533e-015 20   XYZ
    dof rx
    limits (-90.0 20.0)
  end
  begin
     id 6 
     name rhipjoint
     direction -0.632471 -0.659587 0.406111   
     length 2.62319  
     axis 0 -0 0  XYZ 
  end
  begin
     id 7 
     name rfemur
     direction -0.34202 -0.939693 0   
     length 7.21735   
     axis 0 -0 -20   XYZ
    dof rx ry rz
    limits (-160.0 20.0)
           (-70.0 70.0)
           (-70.0 60.0)
  end
  begin
     id 8 
     name rtibia
     direction -0.34202 -0.939693 0   
     length 7.02558   
     axis 0 -0 -20   XYZ
    dof rx
    limits (-10.0 170.0)
 end
 begin
     id 9 
     name rfoot
     direction -0.16057 -0.441164 0.882945   
     length 2.10014  
     axis -90 1.13533e-015 -20   XYZ
    dof rx rz
    limits (-45.0 90.0)
           (-20.0 70.0)
  end
  begin
     id 10 
     name rtoes
     direction -1.53553e-011 -4.2192e-011 1   
     length 1.02554   
     axis -90 1.13533e-015 -20   XYZ
    dof rx
    limits (-90.0 20.0)
  end
  begin
     id 11 
     name lowerback
     direction 0.0401429 0.998861 -0.0258085   
     length 1.80848   
     axis 0 -0 0   XYZ
    dof rx ry rz
    limits (-20.0 45.0)
           (-30.0 30.0)
           (-30.0 30.0)
  end
  begin
     id 12 
     name upperback
     direction -0.0130978 0.999914 -0.000352645   
     length 1.8116   
     axis 0 -0 0   XYZ
    dof rx ry rz
    limits (-20.0 45.0)
           (-30.0 30.0)
           (-30.0 30.0)
  end
  begin
     id 13 
     name thorax
     direction -0.0300198 0.999453 0.0138573   
     length 1.81778   
     axis 0 -0 0   XYZ
    dof rx ry rz
    limits (-20.0 45.0)
           (-30.0 30.0)
           (-30.0 30.0)
  end
  begin
     id 14 
     name lowerneck
     direction -0.0401726 0.999191 -0.00173647   
     length 2.10594   
     axis 0 -0 0   XYZ
    dof rx ry rz
    limits (-20.0 45.0)
           (-30.0 30.0)
           (-30.0 30.0)
  end
  begin
     id 15 
     name upperneck
     direction 0.0119835 0.998501 0.0534085   
     length 2.07325   
     axis 0 -0 0   XYZ
    dof rx ry rz
    limits (-20.0 45.0)
           (-30.0 30.0)
           (-30.0 30.0)
  end
  begin
     id 16
     name head
     direction 0.00628309 0.999826 0.0175921  
     length 2.15096  
     axis 0 -0 0   XYZ
    dof rx ry rz
    limits (-20.0 45.0)
           (-30.0 30.0)
           (-30.0 30.0)
  end
  begin
     id 17 
     name lclavicle
     direction 0.895501 0.429681 -0.115981  
     length 4.18092  
     axis 0 -0 0   XYZ
    dof ry rz
    limits (-20.0 10.0)
           (0.0 20.0)
  end
  begin
     id 18 
     name lhumerus
     direction 1 -4.48961e-011 -3.38433e-028   
     length 5.77237   
     axis 180 -30 -90   XYZ
    dof rx ry rz
    limits (-60.0 90.0)
           (-90.0 90.0)
           (-90.0 90.0)
  end
  begin
     id 19
     name lradius
     direction 1 -4.4901e-011 1.11983e-026   
     length 2.91878   
     axis 180 -30 -90   XYZ
    dof rx
    limits (-10.0 170.0)
  end
  begin
     id 20
     name lwrist
     direction 1 -4.48934e-011 1.88176e-026   
     length 1.45939   
     axis -1.23311e-014 90 90   XYZ
    dof ry
    limits (-180.0 0.0)
 end
  begin
     id 21 
     name lhand
     direction 1 -4.4895e-011 3.76352e-026   
     length 1.06566   
     axis -2.40147e-014 90 90   XYZ
    dof rx rz
    limits (-90.0 90.0)
           (-45.0 45.0)
  end
  begin
     id 22 
     name lfingers
     direction 1 -4.49005e-011 7.52705e-026   
     length 0.859162   
     axis -4.80295e-014 90 90   XYZ
    dof rx
    limits (0.0 90.0)
  end
  begin
     id 23
     name lthumb
     direction 0.707107 -6.34885e-011 0.707107   
     length 1.23359   
     axis -90 45 -9.86935e-015   XYZ
    dof rx rz
    limits (-45.0 45.0)
           (-45.0 45.0)
  end
  begin
     id 24 
     name rclavicle
     direction -0.91006 0.40451 -0.0903492   
     length 4.23293  
     axis 0 -0 0   XYZ 
    dof ry rz
    limits (-10.0 20.0)
           (-20.0 0.0)
  end
  begin
     id 25 
     name rhumerus
     direction -1 -4.4897e-011 1.7415e-027  
     length 5.49854   
     axis 180 30 90   XYZ
    dof rx ry rz
    limits (-90.0 60.0)
           (-90.0 90.0)
           (-90.0 90.0)
  end
  begin
     id 26 
     name rradius
     direction -1 -4.48963e-011 1.21259e-026   
     length 3.1186   
     axis 180 30 90   XYZ
    dof rx
    limits (-10.0 170.0)
  end
  begin
     id 27 
     name rwrist
     direction -1 -4.48967e-011 1.88176e-026   
     length 1.5593   
     axis -1.23311e-014 -90 -90   XYZ
    dof ry
    limits (-180.0 0.0)
  end
  begin
     id 28
     name rhand
     direction -1 -4.4895e-011 3.76352e-026   
     length 0.71207   
     axis -2.40147e-014 -90 -90   XYZ
    dof rx rz
    limits (-90.0 90.0)
           (-45.0 45.0)
  end
  begin
     id 29
     name rfingers
     direction -1 -4.49005e-011 7.52705e-026   
     length 0.574089   
     axis -4.80295e-014 -90 -90   XYZ
    dof rx
    limits (0.0 90.0)
  end
  begin
     id 30
     name rthumb
     direction -0.707107 -6.34982e-011 0.707107   
     length 0.824281   
     axis -90 -45 9.86935e-015   XYZ
    dof rx rz
    limits (-45.0 45.0)
           (-45.0 45.0)
  end
:hierarchy
  begin
    root lhipjoint rhipjoint lowerback
    lhipjoint lfemur
    lfemur ltibia
    ltibia lfoot
    lfoot ltoes
    rhipjoint rfemur
    rfemur rtibia
    rtibia rfoot
    rfoot rtoes
    lowerback upperback
    upperback thorax
    thorax lowerneck lclavicle rclavicle
    lowerneck upperneck
    upperneck head
    lclavicle lhumerus
    lhumerus lradius
    lradius lwrist
    lwrist lhand lthumb
    lhand lfingers
    rclavicle rhumerus
    rhumerus rradius
    rradius rwrist
    rwrist rhand rthumb
    rhand rfingers
  end

#!OML:ASF C:\ViconDB\ViconDB\414\Spring2016\042216\male.ASF
:FULLY-SPECIFIED
:DEGREES
460
root 36.2273 16.8056 12.2998 -128.169 86.8326 -120.507
lowerback 3.80283 -0.211564 8.25205
upperback -0.285072 0.0799237 -0.875917
thorax -2.42496 -0.0713269 -5.55761
lowerneck -4.50788 4.88489 -3.75017
upperneck -5.12542 6.79028 1.52605
head -1.02265 3.48364 1.1114
rclavicle 4.67144e-015 -7.95139e-015
rhumerus -28.7645 16.2079 -96.2213
rradius 101.095
rwrist 4.25473
rhand 7.43598 -16.5768
rfingers 7.12502
rthumb 32.6906 -43.6417
lclavicle 4.67144e-015 -7.95139e-015
lhumerus -49.0673 4.28678 89.8933
lradius 77.5413
lwrist 20.0415
lhand -15.3578 2.43573
lfingers 7.12502
lthumb 10.8197 32.137
rfemur -12.1635 -3.91762 25.4722
rtibia 55.6991
rfoot -10.4149 3.99736
rtoes -22.7294
lfemur -30.4076 -3.42944 -17.2197
ltibia 38.6009
lfoot -3.70371 15.4534
ltoes -15.0333
461
root 36.5572 16.8233 12.2884 -121.126 87.0581 -113.574
lowerback 3.4657 -0.106243 8.21826
upperback -0.350045 0.187999 -0.951035
thorax -2.28552 -0.0140396 -5.62191
lowerneck -4.59904 4.98043 -3.61899
upperneck -4.66253 6.90623 1.63954
head -0.865672 3.53211 1.13423
rclavicle -5.76476e-015 8.15017e-015
rhumerus -29.1845 16.7126 -96.916
rradius 100.946
rwrist 4.43783
rhand 8.16176 -16.1029
rfingers 7.12502
rthumb 33.3808 -43.022
lclavicle -5.76476e-015 8.15017e-015
lhumerus -49.3335 4.47445 89.3987
lradius 77.4041
lwrist 19.8746
lhand -15.3191 2.35616
lfingers 7.12502
lthumb 10.857 32.0555
rfemur -11.4954 -3.96288 25.1476
rtibia 56.0685
rfoot -8.92579 4.87048
rtoes -22.3341
lfemur -29.0053 -3.95177 -17.2072
ltibia 32.2192
lfoot 0.163123 13.538
ltoes -14.655
462
root 36.8827 16.8354 12.2756 -113.602 87.083 -106.131
lowerback 3.13596 -0.0905739 8.2948
upperback -0.400989 0.183496 -0.964082
thorax -2.1535 -0.0134299 -5.67708
lowerneck -4.8409 5.12393 -3.25884
upperneck -4.01235 7.07017 1.46588
head -0.607949 3.6018 1.03766
rclavicle 1.63997e-015 2.52457e-014
rhumerus -29.5819 17.1855 -97.6745
rradius 100.653
rwrist 3.90724
rhand 8.50771 -16.1407
rfingers 7.12502
rthumb 33.7096 -42.9885
lclavicle 1.63997e-015 2.52457e-014
lhumerus -49.5114 4.58605 89.0347
lradius 77.355
lwrist 19.846
lhand -15.4255 2.65555
lfingers 7.12502
lthumb 10.7543 32.3603
rfemur -10.8628 -3.90152 24.9916
rtibia 56.5243
rfoot -7.31729 5.53846
rtoes -22.0056
lfemur -27.7111 -3.77608 -17.3146
ltibia 27.0767
lfoot 3.0251 10.8192
ltoes -11.0753
463
root 37.2087 16.8358 12.2629 -106.031 87.1017 -98.6944
lowerback 2.69519 -0.155806 8.13882
upperback -0.500031 0.0556371 -0.917742
thorax -2.02848 -0.0730805 -5.53218
lowerneck -4.80474 5.33062 -2.99588
upperneck -3.5165 7.31774 1.41571
head -0.455225 3.71492 0.987127
rclavicle -9.93923e-017 -1.98785e-015
rhumerus -30.1155 17.9587 -98.3832
rradius 100.08
rwrist 3.53889
rhand 8.79429 -16.0945
rfingers 7.12502
rthumb 33.9819 -42.8823
lclavicle -9.93923e-017 -1.98785e-015
lhumerus -49.6689 4.89656 88.6552
lradius 77.1145
lwrist 19.5995
lhand -15.3756 2.6481
lfingers 7.12502
lthumb 10.8025 32.3503
rfemur -10.3338 -3.98049 24.7462
rtibia 57.0595
rfoot -5.5388 6.19725
rtoes -21.6426
lfemur -26.7218 -3.63078 -17.4195
ltibia 23.8831
lfoot 4.57655 9.28863
ltoes -12.1959
464
root 37.5239 16.8331 12.254 -100.436 86.762 -93.2366
lowerback 2.26486 -0.285922 8.28894
upperback -0.606819 -0.144612 -0.804068
thorax -1.92907 -0.172991 -5.4888
lowerneck -4.66268 5.52529 -2.79436
upperneck -3.09665 7.55233 1.44334
head -0.348283 3.82346 0.96697
rclavicle 3.72721e-016 4.57205e-015
rhumerus -30.6067 18.3695 -99.073
rradius 99.3243
rwrist 3.25235
rhand 8.91264 -16.2586
rfingers 7.12502
rthumb 34.0943 -43.0214
lclavicle 3.72721e-016 4.57205e-015
lhumerus -49.7427 4.90373 88.3249
lradius 76.8395
lwrist 19.0292
lhand -15.1809 2.7484
lfingers 7.12502
lthumb 10.9902 32.4407
rfemur -10.0123 -3.8729 24.8788
rtibia 57.728
rfoot -3.43683 6.60361
rtoes -21.2771
lfemur -26.2461 -3.31348 -17.2792
ltibia 23.0292
lfoot 5.98412 8.50026
ltoes -11.8602
465
root 37.836 16.8289 12.2475 -94.679 86.392 -87.379
lowerback 2.0955 -0.421941 8.39197
upperback -0.683805 -0.330033 -0.612631
thorax -1.94262 -0.26784 -5.33895
lowerneck -4.40458 5.71752 -2.75028
upperneck -2.66819 7.78769 1.47493
head -0.263854 3.93387 0.97052
rclavicle -1.54058e-015 3.02153e-014
rhumerus -31.0917 18.9199 -99.5046
rradius 98.283
rwrist 2.75796
rhand 9.15536 -16.4276
rfingers 7.12502
rthumb 34.3248 -43.1387
lclavicle -1.54058e-015 3.02153e-014
lhumerus -49.7572 5.18432 88.0987
lradius 76.7452
lwrist 19.0582
lhand -14.9466 3.04302
lfingers 7.12502
lthumb 11.2163 32.7232
rfemur -9.57244 -3.7192 25.0752
rtibia 58.5734
rfoot -1.29767 6.91766
rtoes -22.5214
lfemur -25.6867 -3.1162 -17.0878
ltibia 24.0706
lfoot 6.45123 9.0299
ltoes -7.21058
466
root 38.1461 16.8283 12.2268 -89.4532 86.0133 -82.1973
lowerback 1.67912 -0.49121 8.82958
upperback -0.772124 -0.444219 -0.5479
thorax -1.82223 -0.326599 -5.51564
lowerneck -4.13557 5.89531 -2.69101
upperneck -2.24061 8.00469 1.55191
head -0.182441 4.03579 0.985116
rclavicle 8.72168e-015 -1.88845e-014
rhumerus -31.6717 19.1862 -99.9535
rradius 97.1018
rwrist 2.41017
rhand 9.40503 -16.7031
rfingers 7.12502
rthumb 34.5618 -43.3603
lclavicle 8.72168e-015 -1.88845e-014
lhumerus -49.6024 4.79181 88.0945
lradius 76.4175
lwrist 19.6246
lhand -14.8396 3.30595
lfingers 7.12502
lthumb 11.3195 32.9805
rfemur -9.46666 -3.76248 25.1285
rtibia 59.5777
rfoot 0.902873 7.46193
rtoes -22.5197
lfemur -25.3403 -2.62112 -17.0524
ltibia 26.469
lfoot 2.37791 9.43104
ltoes -7.70168
